<?xml version="1.0" encoding="UTF-8"?>
<!-- Created with Inkscape (http://www.inkscape.org/) -->
<svg width="180" height="48" version="1.1" viewBox="0 0 180 48" xml:space="preserve" xmlns="http://www.w3.org/2000/svg"><g fill="#000c2a"><g transform="matrix(1.2396 0 0 1.1474 -4.6229 -4.6003)" stroke-width="1.5"><path d="m3.805 37.186 5.8249-24.68h32.796l-3.9639 16.688-6.1546 0.0083 2.5067-10.675-20.368-0.06665-3.0241 12.738h18.353l-1.4199 6.0148z"/><path d="m30.41 37.276h6.1805l1.3863-6.0694h-6.152z"/></g><path d="m65.019 33.633q-5.2061 0-5.2061-4.3915v-13.954q0-4.3915 5.2061-4.3915h5.2415q5.2061 0 5.2061 4.3915v13.954q0 2.1958-1.3104 3.2936l3.2936 3.5061h-7.0477l-2.2312-2.4083zm0.99163-17.531v12.325q0 0.77914 0.88539 0.77914h1.4875q0.88539 0 0.88539-0.77914v-12.325q0-0.77914-0.88539-0.77914h-1.4875q-0.88539 0-0.88539 0.77914zm20.47-0.14166h6.0206v17.672h-5.9144v-2.2666q-0.49582 2.2666-3.2228 2.2666h-0.63748q-4.7103 0-4.7103-4.3915v-13.281h6.0206v12.466q0 0.77914 0.88539 0.77914h0.60206q0.95622 0 0.95622-1.0625zm8.7476-1.7708v-4.2499h6.2331v4.2499zm6.1269 19.443h-6.0206v-17.672h6.0206zm12.856-9.1372 4.3915 9.1372h-6.0915l-1.9124-5.2415-1.7354 5.2415h-5.879l4.0374-9.031-4.2499-8.6414h6.304l1.5229 4.9228 1.5229-4.9228h5.9852zm15.335-5.0644v-3.6832q0-0.77914-0.88539-0.77914h-2.5499v5.2415h2.5499q0.88539 0 0.88539-0.77914zm0 9.3497v-3.7186q0-0.77914-0.88539-0.77914h-2.5499v5.2769h2.5499q0.88539 0 0.88539-0.77914zm-9.5268-17.885h10.412q5.2061 0 5.2061 4.3915v2.9041q0 3.0811-1.7 4.002 0.99164 0.42499 1.3458 1.3104 0.35416 0.84997 0.35416 2.3374v3.3999q0 4.3915-5.2061 4.3915h-10.412zm22.17 27.305h-2.9749v-4.3561h2.6208q0.84997 0 1.3458-0.28332t0.84997-1.3458h-2.302l-4.8519-16.256h6.304l2.1604 10.766 1.9124-10.766h6.056l-4.4269 17.318q-0.74373 2.4437-2.2666 3.6832-1.5229 1.2395-4.4269 1.2395zm21.497-17.814h-2.2312v8.0393q0 0.77914 0.88539 0.77914h1.3104v4.4269h-3.0103q-5.2061 0-5.2061-4.3915v-8.8539h-1.9479v-4.4269h1.9479v-3.4707h6.0206v3.4707h2.2312zm6.6227-4.4269h4.3207q5.2061 0 5.2061 4.3915v6.0206h-9.031v2.3374q0 0.77914 0.88539 0.77914h1.5583q0.88539 0 0.88539-0.84997v-0.99163h5.7019v1.5937q0 4.3915-5.2061 4.3915h-4.3207q-5.2061 0-5.2061-4.3915v-8.8893q0-4.3915 5.2061-4.3915zm0.49582 7.1539h3.3291v-2.2312q0-0.77914-0.88539-0.77914h-1.5583q-0.88539 0-0.88539 0.77914z" stroke-width="7.4277" aria-label="QuixByte"/></g></svg>
